# xmcd CD database file
#
# Track frame offsets:
#	150
#	9440
#	22602
#	36755
#	50705
#	86380
#	100155
#	113587
#	126345
#	144037
#	153917
#	178932
#	190162
#
# Disc length: 2622 seconds
#
# Revision: 1
# Processed by: cddbd v1.5.2PL0 Copyright (c) Steve Scherf et al.
# Submitted via: CDex 1.51
#
DISCID=960a3c0d
DTITLE=Slawek Wierzcholski+Dzem - Cisnienie
DYEAR=1993
DGENRE=Blues
TTITLE0=Wodnik-rozrywkowy bar
TTITLE1=Cisnienie
TTITLE2=Juz nigdy
TTITLE3=Niezaplacony rachunek
TTITLE4=Blues telefoniczny
TTITLE5=Zawsze wygra blues
TTITLE6=Wspaniale zycie
TTITLE7=Przez cala noc
TTITLE8=Ani slowa o klopotach
TTITLE9=Zeberka
TTITLE10=Moje zycie to blues
TTITLE11=Przegranych nikt nie lubi
TTITLE12=Lata dziewiecdziesiate
EXTD=YEAR: 1993
EXTT0=
EXTT1=
EXTT2=
EXTT3=
EXTT4=
EXTT5=
EXTT6=
EXTT7=
EXTT8=
EXTT9=
EXTT10=
EXTT11=
EXTT12=
PLAYORDER=
